<?xml version="1.0" encoding="UTF-8"?>
<svg xmlns="http://www.w3.org/2000/svg" xmlns:xlink="http://www.w3.org/1999/xlink" width="48pt" height="48pt" viewBox="0 0 48 48" version="1.1">
<defs>
<linearGradient id="linear0" gradientUnits="userSpaceOnUse" x1="14.33333" y1="84.237" x2="157.66667" y2="84.237" gradientTransform="matrix(0.27907,0,0,0.27907,0,0)">
<stop offset="0" style="stop-color:rgb(29.803922%,29.803922%,29.803922%);stop-opacity:1;"/>
<stop offset="1" style="stop-color:rgb(20.392157%,20.392157%,20.392157%);stop-opacity:1;"/>
</linearGradient>
<filter id="alpha" filterUnits="objectBoundingBox" x="0%" y="0%" width="100%" height="100%">
  <feColorMatrix type="matrix" in="SourceGraphic" values="0 0 0 0 1 0 0 0 0 1 0 0 0 0 1 0 0 0 1 0"/>
</filter>
<mask id="mask0">
  <g filter="url(#alpha)">
<rect x="0" y="0" width="48" height="48" style="fill:rgb(0%,0%,0%);fill-opacity:0.0509804;stroke:none;"/>
  </g>
</mask>
<clipPath id="clip1">
  <rect width="48" height="48"/>
</clipPath>
<g id="surface8626381" clip-path="url(#clip1)">
<path style=" stroke:none;fill-rule:nonzero;fill:rgb(0%,0%,0%);fill-opacity:1;" d="M 30.011719 41.996094 L 30 36.199219 C 30 35.257812 29.78125 34.34375 29.359375 33.511719 C 35 32.378906 37.742188 29.042969 37.742188 23.335938 C 37.742188 21.078125 37.078125 19.089844 35.769531 17.414062 C 35.867188 17.097656 35.941406 16.769531 35.988281 16.433594 C 36.175781 15.0625 35.964844 14.167969 35.796875 13.449219 L 35.769531 13.332031 C 35.582031 12.535156 35.359375 11.96875 35.351562 11.945312 L 35.238281 11.664062 L 35.128906 11.382812 L 34.824219 11.347656 L 34.523438 11.316406 C 34.523438 11.316406 34.324219 11.296875 34.023438 11.296875 C 33.601562 11.296875 32.980469 11.339844 32.394531 11.535156 L 32.199219 11.601562 C 31.460938 11.851562 30.761719 12.089844 29.78125 12.671875 C 29.496094 12.84375 29.183594 13.039062 28.847656 13.257812 C 27.335938 12.882812 25.703125 12.691406 24 12.691406 C 22.277344 12.691406 20.636719 12.882812 19.109375 13.261719 C 18.773438 13.039062 18.457031 12.84375 18.167969 12.671875 C 17.191406 12.089844 16.492188 11.851562 15.753906 11.601562 L 15.554688 11.535156 C 14.972656 11.339844 14.347656 11.296875 13.929688 11.296875 C 13.628906 11.296875 13.429688 11.316406 13.429688 11.316406 L 12.828125 11.378906 L 12.714844 11.660156 L 12.601562 11.945312 C 12.59375 11.96875 12.367188 12.539062 12.183594 13.335938 L 12.15625 13.449219 C 11.984375 14.167969 11.773438 15.066406 11.964844 16.433594 C 12.011719 16.777344 12.089844 17.117188 12.191406 17.445312 C 10.90625 19.109375 10.257812 21.089844 10.257812 23.335938 C 10.257812 29.027344 13.003906 32.363281 18.652344 33.503906 C 18.460938 33.890625 18.308594 34.300781 18.203125 34.726562 C 18.003906 34.796875 17.824219 34.839844 17.664062 34.863281 C 17.425781 34.902344 17.175781 34.917969 16.925781 34.917969 C 16.238281 34.917969 15.699219 34.785156 15.488281 34.660156 C 15.175781 34.472656 14.617188 33.933594 14.074219 33.140625 C 13.613281 32.46875 12.890625 31.585938 12.085938 31.214844 C 11.386719 30.894531 10.648438 30.714844 10.054688 30.714844 C 9.917969 30.714844 9.789062 30.722656 9.679688 30.742188 C 9.160156 30.824219 8.730469 31.105469 8.496094 31.519531 C 8.292969 31.878906 8.261719 32.292969 8.40625 32.660156 C 8.625 33.210938 9.257812 33.648438 9.75 33.917969 C 9.992188 34.050781 10.515625 34.535156 10.820312 35.027344 C 11.050781 35.394531 11.15625 35.65625 11.300781 36.019531 C 11.390625 36.234375 11.484375 36.46875 11.613281 36.75 C 12.085938 37.773438 13.550781 38.675781 13.71875 38.773438 C 14.523438 39.257812 15.878906 39.410156 16.875 39.457031 L 16.996094 39.460938 L 17 39.460938 C 17.238281 39.460938 17.570312 39.4375 18.003906 39.386719 L 18.003906 42 C 18.003906 42.53125 17.464844 42.648438 16.753906 42.640625 L 17.300781 42.824219 C 19.394531 43.570312 21.644531 44 24 44 C 26.355469 44 28.605469 43.570312 30.703125 42.824219 L 31.40625 42.5625 C 30.695312 42.539062 30.015625 42.421875 30.011719 41.996094 Z M 30.011719 41.996094 "/>
</g>
<mask id="mask1">
  <g filter="url(#alpha)">
<rect x="0" y="0" width="48" height="48" style="fill:rgb(0%,0%,0%);fill-opacity:0.0705882;stroke:none;"/>
  </g>
</mask>
<clipPath id="clip2">
  <rect width="48" height="48"/>
</clipPath>
<g id="surface8626384" clip-path="url(#clip2)">
<path style=" stroke:none;fill-rule:nonzero;fill:rgb(0%,0%,0%);fill-opacity:1;" d="M 30.78125 42.796875 C 30.375 42.84375 29.5 42.6875 29.5 42.003906 L 29.5 36.199219 C 29.5 35.105469 29.171875 34.046875 28.5625 33.144531 C 34.480469 32.1875 37.242188 29.054688 37.242188 23.335938 C 37.242188 21.097656 36.558594 19.140625 35.203125 17.511719 C 35.339844 17.148438 35.4375 16.761719 35.492188 16.363281 C 35.667969 15.089844 35.476562 14.277344 35.308594 13.5625 L 35.28125 13.449219 C 35.101562 12.6875 34.894531 12.152344 34.882812 12.128906 L 34.773438 11.847656 L 34.46875 11.816406 C 34.46875 11.816406 34.292969 11.796875 34.019531 11.796875 C 33.640625 11.796875 33.078125 11.832031 32.554688 12.011719 L 32.359375 12.078125 C 31.644531 12.316406 30.96875 12.546875 30.039062 13.101562 C 29.707031 13.300781 29.335938 13.53125 28.9375 13.796875 C 27.402344 13.394531 25.746094 13.191406 24 13.191406 C 22.238281 13.191406 20.566406 13.394531 19.019531 13.800781 C 18.617188 13.535156 18.246094 13.300781 17.910156 13.101562 C 16.980469 12.546875 16.304688 12.316406 15.589844 12.078125 L 15.394531 12.011719 C 14.875 11.835938 14.308594 11.796875 13.929688 11.796875 C 13.65625 11.796875 13.480469 11.816406 13.480469 11.816406 L 13.179688 11.847656 L 13.066406 12.128906 C 13.054688 12.152344 12.847656 12.6875 12.667969 13.449219 L 12.640625 13.566406 C 12.472656 14.28125 12.28125 15.089844 12.457031 16.363281 C 12.511719 16.773438 12.613281 17.164062 12.753906 17.539062 C 11.429688 19.160156 10.757812 21.105469 10.757812 23.335938 C 10.757812 29.035156 13.523438 32.171875 19.441406 33.140625 C 19.046875 33.730469 18.769531 34.394531 18.628906 35.105469 C 18.300781 35.234375 18 35.320312 17.738281 35.359375 C 17.476562 35.398438 17.199219 35.421875 16.925781 35.421875 C 16.234375 35.421875 15.570312 35.289062 15.234375 35.089844 C 14.792969 34.828125 14.175781 34.175781 13.660156 33.425781 C 13.3125 32.914062 12.613281 32.007812 11.875 31.671875 C 11.238281 31.382812 10.574219 31.214844 10.054688 31.214844 C 9.941406 31.214844 9.84375 31.222656 9.753906 31.234375 C 9.390625 31.292969 9.085938 31.488281 8.925781 31.769531 C 8.800781 31.992188 8.777344 32.253906 8.867188 32.476562 C 9.046875 32.925781 9.710938 33.328125 9.988281 33.480469 C 10.320312 33.664062 10.90625 34.222656 11.242188 34.765625 C 11.492188 35.167969 11.609375 35.460938 11.761719 35.832031 C 11.847656 36.039062 11.941406 36.269531 12.066406 36.542969 C 12.398438 37.261719 13.417969 38.015625 13.972656 38.347656 C 14.726562 38.796875 16.125 38.925781 16.894531 38.957031 L 17.003906 38.960938 C 17.304688 38.960938 17.804688 38.914062 18.5 38.824219 L 18.5 42.003906 C 18.5 42.78125 17.507812 42.8125 17.265625 42.8125 C 17.234375 42.8125 17.769531 42.996094 17.769531 42.996094 C 19.730469 43.640625 21.820312 44 24 44 C 26.179688 44 28.269531 43.640625 30.230469 42.996094 C 30.230469 42.996094 30.8125 42.792969 30.78125 42.796875 Z M 30.78125 42.796875 "/>
</g>
</defs>
<g id="surface8626376">
<rect x="0" y="0" width="48" height="48" style="fill:rgb(100%,100%,100%);fill-opacity:1;stroke:none;"/>
<path style=" stroke:none;fill-rule:nonzero;fill:url(#linear0);" d="M 24 4 C 12.953125 4 4 12.953125 4 24 C 4 32.886719 9.800781 40.410156 17.820312 43.015625 L 30.179688 43.015625 C 38.199219 40.410156 44 32.886719 44 24 C 44 12.953125 35.046875 4 24 4 Z M 24 4 "/>
<use xlink:href="#surface8626381" mask="url(#mask0)"/>
<use xlink:href="#surface8626384" mask="url(#mask1)"/>
<path style=" stroke:none;fill-rule:nonzero;fill:rgb(100%,100%,100%);fill-opacity:1;" d="M 36.742188 23.335938 C 36.742188 21.023438 35.960938 19.109375 34.628906 17.605469 C 34.773438 17.28125 34.921875 16.84375 34.996094 16.296875 C 35.171875 15.046875 34.96875 14.296875 34.796875 13.5625 C 34.621094 12.828125 34.421875 12.3125 34.421875 12.3125 C 34.421875 12.3125 33.496094 12.21875 32.71875 12.484375 C 31.9375 12.75 31.265625 12.953125 30.296875 13.53125 C 29.84375 13.800781 29.386719 14.097656 29.023438 14.339844 C 27.480469 13.910156 25.785156 13.691406 24 13.691406 C 22.199219 13.691406 20.488281 13.910156 18.933594 14.34375 C 18.570312 14.101562 18.113281 13.804688 17.65625 13.53125 C 16.6875 12.953125 16.015625 12.75 15.234375 12.484375 C 14.453125 12.21875 13.53125 12.3125 13.53125 12.3125 C 13.53125 12.3125 13.328125 12.828125 13.15625 13.5625 C 12.984375 14.296875 12.78125 15.046875 12.953125 16.296875 C 13.03125 16.859375 13.1875 17.300781 13.335938 17.628906 C 12.023438 19.121094 11.257812 21.027344 11.257812 23.332031 C 11.257812 29.316406 14.488281 32.046875 20.378906 32.769531 C 19.691406 33.492188 19.230469 34.425781 19.074219 35.460938 C 18.6875 35.628906 18.242188 35.789062 17.8125 35.851562 C 16.710938 36.019531 15.542969 35.851562 14.980469 35.519531 C 14.417969 35.1875 13.75 34.4375 13.25 33.707031 C 12.828125 33.089844 12.21875 32.375 11.667969 32.125 C 10.9375 31.789062 10.230469 31.664062 9.835938 31.726562 C 9.4375 31.789062 9.253906 32.082031 9.335938 32.289062 C 9.417969 32.5 9.8125 32.8125 10.230469 33.039062 C 10.648438 33.269531 11.292969 33.894531 11.667969 34.5 C 12.085938 35.171875 12.167969 35.5625 12.523438 36.332031 C 12.773438 36.875 13.625 37.550781 14.230469 37.914062 C 14.753906 38.226562 15.792969 38.40625 16.917969 38.457031 C 17.308594 38.476562 18.226562 38.359375 19.003906 38.25 L 19.003906 42 C 19.003906 42.640625 18.417969 43.125 17.8125 43.015625 C 19.757812 43.667969 21.832031 44 24 44 C 26.164062 44 28.242188 43.667969 30.191406 43.015625 C 29.585938 43.128906 29 42.640625 29 42.003906 L 29 36.199219 C 29 34.867188 28.472656 33.667969 27.628906 32.773438 C 33.472656 32.070312 36.742188 29.40625 36.742188 23.335938 Z M 11.238281 32.726562 C 11.085938 32.648438 11.003906 32.503906 11.054688 32.398438 C 11.105469 32.296875 11.273438 32.277344 11.429688 32.355469 C 11.582031 32.433594 11.664062 32.582031 11.613281 32.683594 C 11.5625 32.785156 11.394531 32.804688 11.238281 32.726562 Z M 12.449219 33.480469 C 12.371094 33.570312 12.195312 33.542969 12.0625 33.421875 C 11.929688 33.296875 11.886719 33.128906 11.964844 33.039062 C 12.046875 32.949219 12.222656 32.980469 12.355469 33.101562 C 12.488281 33.222656 12.53125 33.394531 12.449219 33.480469 Z M 13.203125 34.730469 C 13.101562 34.804688 12.929688 34.738281 12.820312 34.582031 C 12.707031 34.425781 12.699219 34.242188 12.804688 34.171875 C 12.90625 34.097656 13.078125 34.164062 13.1875 34.320312 C 13.300781 34.476562 13.308594 34.660156 13.203125 34.730469 Z M 14.289062 35.671875 C 14.21875 35.785156 14.023438 35.789062 13.851562 35.683594 C 13.679688 35.578125 13.59375 35.402344 13.664062 35.292969 C 13.734375 35.179688 13.929688 35.175781 14.101562 35.28125 C 14.273438 35.386719 14.355469 35.5625 14.289062 35.671875 Z M 15.3125 36.59375 C 15.097656 36.566406 14.941406 36.433594 14.960938 36.296875 C 14.976562 36.160156 15.164062 36.070312 15.375 36.09375 C 15.589844 36.121094 15.746094 36.253906 15.726562 36.390625 C 15.710938 36.527344 15.523438 36.621094 15.3125 36.59375 Z M 16.964844 36.832031 C 16.734375 36.820312 16.558594 36.691406 16.566406 36.542969 C 16.578125 36.398438 16.769531 36.289062 16.996094 36.300781 C 17.222656 36.316406 17.398438 36.445312 17.390625 36.589844 C 17.382812 36.738281 17.191406 36.847656 16.964844 36.832031 Z M 18.519531 36.675781 C 18.277344 36.675781 18.082031 36.550781 18.082031 36.394531 C 18.082031 36.242188 18.277344 36.113281 18.519531 36.113281 C 18.761719 36.113281 18.960938 36.242188 18.960938 36.394531 C 18.960938 36.550781 18.761719 36.675781 18.519531 36.675781 Z M 18.519531 36.675781 "/>
</g>
</svg>
